<mxfile host="65bd71144e">
    <diagram id="-EldqeftA0zqghqZX85-" name="第 1 页">
        <mxGraphModel dx="1540" dy="849" grid="1" gridSize="10" guides="1" tooltips="1" connect="1" arrows="1" fold="1" page="1" pageScale="1" pageWidth="827" pageHeight="1169" math="0" shadow="0">
            <root>
                <mxCell id="0"/>
                <mxCell id="1" parent="0"/>
                <mxCell id="KtH93idEmtyI28sFHdmc-1" value="&lt;font style=&quot;font-size: 24px;&quot;&gt;entry protection verify&lt;/font&gt;" style="rounded=1;whiteSpace=wrap;html=1;" parent="1" vertex="1">
                    <mxGeometry x="140" y="190" width="250" height="60" as="geometry"/>
                </mxCell>
                <mxCell id="KtH93idEmtyI28sFHdmc-2" value="&lt;font style=&quot;font-size: 24px;&quot;&gt;feature list&lt;/font&gt;" style="rounded=1;whiteSpace=wrap;html=1;" parent="1" vertex="1">
                    <mxGeometry x="140" y="300" width="250" height="60" as="geometry"/>
                </mxCell>
                <mxCell id="KtH93idEmtyI28sFHdmc-3" value="&lt;font style=&quot;font-size: 24px;&quot;&gt;delimitation&lt;/font&gt;" style="rounded=1;whiteSpace=wrap;html=1;" parent="1" vertex="1">
                    <mxGeometry x="140" y="400" width="250" height="60" as="geometry"/>
                </mxCell>
                <mxCell id="2" value="Text" style="text;html=1;align=center;verticalAlign=middle;resizable=0;points=[];autosize=1;strokeColor=none;fillColor=none;" vertex="1" parent="1">
                    <mxGeometry x="505" y="435" width="50" height="30" as="geometry"/>
                </mxCell>
            </root>
        </mxGraphModel>
    </diagram>
</mxfile>